<svg width="1707" height="992" viewBox="0 0 1707 992" fill="none" xmlns="http://www.w3.org/2000/svg">
<g clip-path="url(#clip0_824_6)">
<path d="M1498.4 1.86629C1496.53 2.66629 1493.6 4.93296 1492.13 6.93296C1490.53 8.93296 1487.47 10.7996 1485.33 11.333C1481.33 12.2663 1473.33 20.3996 1473.33 23.5996C1473.33 24.533 1472.93 25.333 1472.27 25.333C1471.73 25.333 1470.53 28.3996 1469.6 32.2663C1467.6 41.0663 1469.47 42.3996 1482.67 41.5996L1486 41.4663L1482.67 43.9996C1478.93 46.933 1476.53 47.333 1475.2 45.1996C1474.8 44.3996 1472.8 43.9996 1470.8 44.3996C1468.67 44.7996 1466.4 44.2663 1465.07 43.0663C1462.93 41.1996 1462.27 41.1996 1457.73 43.333C1454.93 44.6663 1451.2 47.0663 1449.33 48.6663C1447.47 50.2663 1444.27 52.2663 1442.27 52.933C1440.13 53.5996 1436.27 55.9996 1433.6 58.3996C1430.8 60.7996 1425.33 65.5996 1421.33 69.1996C1417.33 72.7996 1410.67 77.333 1406.67 79.333C1399.33 82.933 1377.33 103.066 1377.33 106.133C1377.33 106.933 1375.6 110.933 1373.33 115.066C1371.2 119.2 1369.33 123.733 1369.33 125.066C1369.33 126.4 1367.87 128.266 1366 129.066C1364.13 129.866 1362.67 131.733 1362.67 133.066C1362.67 134.4 1361.2 136.8 1359.33 138.4C1356.93 140.533 1356 142.666 1356 146C1356 150 1356.4 150.666 1359.2 150.666C1360.93 150.666 1362.67 151.466 1363.07 152.533C1363.47 153.6 1365.07 154.133 1367.2 153.733C1372.53 152.666 1382.67 157.333 1382.67 160.8C1382.67 162.666 1381.6 164 1379.73 164.4C1378 164.8 1373.87 166.133 1370.53 167.466C1365.2 169.466 1364 169.6 1362.13 168.133C1360.13 166.533 1360.13 166 1362 164C1363.73 162 1363.6 161.466 1360.13 158.133L1356.4 154.533L1352.8 158.666C1349.33 162.933 1348.27 167.2 1350.53 168.533C1351.2 168.933 1352.13 172.133 1352.67 175.466C1353.47 181.2 1353.2 181.866 1349.47 185.2C1347.33 187.066 1345.33 190.133 1345.07 192C1344.8 194.133 1343.73 195.466 1342 195.733C1338.13 196.4 1336 199.866 1336 205.333C1336 208.533 1335.07 211.066 1333.33 212.666C1331.87 214 1330.67 216.4 1330.67 217.866C1330.67 220.533 1328.67 222.4 1321.33 226.266C1318.27 227.866 1317.6 227.6 1312.4 222.4L1306.8 216.933L1297.87 217.733C1289.47 218.4 1288.8 218.666 1283.87 224.133C1274.8 234.4 1270.67 240.933 1270.67 245.333C1270.67 248.4 1269.2 251.066 1264.93 255.6C1259.2 261.6 1259.07 261.6 1254.53 260C1250.53 258.533 1249.2 258.666 1245.2 260.8C1242.8 262.133 1240 263.066 1239.2 262.933C1238.4 262.8 1236.67 263.866 1235.33 265.333C1232.93 268 1229.33 268.933 1229.33 266.933C1229.33 266.4 1230.27 264.933 1231.33 263.466C1233.07 261.2 1232.93 260.666 1229.87 258.266L1226.53 255.6L1218.93 258.933C1210.4 262.533 1207.47 266.533 1207.47 275.066C1207.33 279.733 1207.07 280.133 1204 279.466C1202 279.2 1199.6 279.733 1198 281.066C1195.87 282.8 1196 282.533 1198.4 279.866C1204.8 272.533 1201.33 270.8 1189.2 275.6C1182.27 278.266 1179.2 280.266 1177.87 282.933C1175.73 287.2 1172.27 289.333 1167.6 289.333C1165.87 289.333 1163.33 290.533 1161.87 292.133C1159.73 294.533 1159.6 295.066 1161.33 296.133C1167.47 299.733 1167.47 299.733 1164.27 303.066C1160.53 307.066 1160.27 314 1163.87 316C1165.47 316.8 1166.8 316.8 1167.2 316.133C1168 314.8 1177.33 322.4 1177.33 324.266C1177.33 324.8 1176 325.333 1174.27 325.333C1171.47 325.333 1164 331.466 1164 333.6C1164 334.133 1165.07 334.8 1166.4 335.066C1168.27 335.6 1168.27 335.733 1166 335.866C1164.53 336 1161.07 336.666 1158.4 337.466C1153.2 338.8 1149.33 343.866 1149.33 349.066C1149.33 352.8 1141.07 354.266 1137.07 351.333C1135.33 350.266 1132.4 349.333 1130.4 349.333C1127.2 349.333 1126.67 349.866 1126.67 353.066C1126.67 355.066 1127.33 357.466 1128.27 358.4C1129.73 359.866 1134.67 373.733 1134.67 376.666C1134.67 377.333 1131.87 378.133 1128.27 378.266C1123.07 378.533 1121.2 377.866 1117.07 374.533C1114.4 372.4 1111.2 370.666 1110.13 370.666C1109.07 370.666 1108 369.333 1107.73 367.6C1107.47 365.2 1106.53 364.666 1103.33 364.933C1099.33 365.2 1099.33 365.2 1102.27 362.933C1106.93 359.2 1104.93 349.2 1099.73 350.933C1097.2 351.866 1091.6 344.533 1092.67 341.466C1093.47 338.933 1090.8 337.6 1082.93 336.666C1081.2 336.4 1079.07 335.6 1078 334.666C1076.67 333.6 1075.6 333.733 1073.47 335.6C1071.87 336.8 1070.67 338.8 1070.67 339.733C1070.67 340.8 1069.87 341.333 1069.07 340.933C1068.13 340.666 1066.27 340.933 1064.93 341.6C1063.07 342.533 1061.73 342.266 1060 340.666C1058.67 339.466 1056.67 338.666 1055.73 339.066C1054.8 339.333 1052.93 338.8 1051.73 337.733C1049.73 336 1049.33 336.266 1048.13 340.933C1046.13 347.733 1046.27 348.533 1049.33 354.266C1052.93 361.2 1052.8 363.733 1048.4 364.8C1046.27 365.333 1042.93 367.2 1040.93 368.933C1036.13 372.8 1034.93 372.8 1033.07 368.666C1031.47 365.066 1029.33 365.466 1029.33 369.466C1029.33 371.733 1028.53 372.133 1025.07 371.733C1022.27 371.466 1020.67 370.666 1020.67 369.333C1020.53 368.266 1020 366.266 1019.2 364.933C1018 362.8 1017.33 362.666 1009.87 364.533C1005.6 365.6 1000.27 366.8 998.267 367.2C996.133 367.733 991.867 370.533 988.533 373.6C983.067 378.666 982.667 378.8 982.667 376C982.667 374.266 981.6 371.733 980.4 370.4C978.133 367.866 978 367.866 974.667 372C971.6 375.733 970.933 376 967.6 374.8C965.467 374 961.6 373.333 958.8 373.333C954 373.333 953.867 373.2 954.4 369.466C954.667 367.333 957.333 362.8 960.267 359.2C966.133 352 969.333 346.533 969.333 343.333C969.333 342.266 970 340.133 970.933 338.666C972.267 336.533 972.133 335.466 969.6 332.133C968 329.866 966.667 326.4 966.667 324.266C966.667 320.4 960.4 312.8 957.6 313.6C956.933 313.866 954.8 311.866 953.067 309.333C950.667 306 948.933 304.8 946.667 305.066C945.067 305.2 942.933 304.8 942 304C940.933 303.2 939.6 303.333 937.867 304.666C936.533 305.733 934 306.666 932.4 306.666C930.8 306.666 927.867 307.333 926 308.266C923.067 309.6 922.133 309.333 919.467 306.8C916.667 304.133 915.333 303.866 910.4 304.666L904.667 305.6L907.733 302.4C910 299.866 910.533 298.266 909.867 294.8C909.2 292 908.267 290.666 906.8 290.8C905.6 290.933 903.067 290.666 901.067 290.133C898.133 289.333 896.533 289.866 892.133 293.466C884 300 878.533 316.666 882.933 321.066C885.333 323.466 882 325.333 875.067 325.333C870.4 325.333 869.467 325.733 869.733 328C869.867 329.466 870.8 330.933 872 331.333C873.467 332 872.8 332.666 869.733 334C867.333 335.066 865.333 336.533 865.333 337.333C865.333 338 863.733 338.666 861.867 338.666C859.067 338.666 858.667 338.133 859.333 336C860 333.733 859.6 333.333 856 333.333C853.733 333.333 851.6 334.133 851.2 335.2C850.8 336.266 847.867 337.466 844.667 338C838.267 338.933 831.333 343.6 834.4 344.933C837.067 346 829.6 350.133 822.933 351.333C819.867 351.866 817.067 352.8 816.533 353.466C816.133 354.133 813.867 355.6 811.333 356.533C808.933 357.6 806.267 359.733 805.333 361.2C804.4 363.066 802.533 364 800.133 364C796.133 364 795.733 365.066 794.4 378C794.267 379.466 792.533 382 790.667 383.6L787.333 386.666L791.733 390.4C794 392.533 796 394.533 796 394.933C796 396.933 772 399.466 761.467 398.666C754.4 398.133 752.267 398.4 749.733 400.4C746.533 402.933 745.733 407.733 747.867 411.866C748.8 413.466 748.533 416 747.333 419.733C745.467 424.933 745.6 425.466 748.933 430.533C750.933 433.6 752.933 436 753.6 436C754.667 436 758.667 443.066 758.667 445.333C758.667 447.733 753.867 446.8 751.2 443.866C749.867 442.266 748.8 439.733 748.933 438.266C749.333 434 738.933 426.666 734.133 427.6C731.067 428.266 730.533 427.866 730.933 425.866C731.2 424.4 730 422.666 727.733 421.466C724.133 419.466 723.867 419.466 719.733 423.733C715.733 427.733 715.6 428.266 717.6 429.466C718.933 430.133 720.4 430.8 720.933 430.8C722.133 430.666 724.267 437.6 723.333 438.533C722.933 438.8 720.933 437.6 718.933 435.6C715.467 432.266 715.067 432.133 712.267 434.133C709.467 436 709.333 436 710 432.4C710.267 430.4 710.933 424.666 711.333 419.6L712.133 410.666H708.533C705.467 410.666 705.2 410.4 706.8 408.533C708.267 406.666 708 406 705.333 404C702 401.466 702 401.466 701.067 405.066C700.4 407.333 700.667 409.333 701.867 410.666C704.133 413.2 703.733 425.733 701.467 428.533C700.4 429.733 698.4 430.666 696.8 430.666C695.067 430.666 691.2 433.333 687.6 437.066C682 442.8 681.467 443.733 683.2 445.333C684.4 446.266 685.333 448.533 685.333 450.4C685.333 452.133 686 456 686.933 458.8C688.133 463.066 688.133 464.4 686.4 466.266C682.8 470.533 677.333 482.8 677.333 486.8C677.333 488.933 676.667 491.866 675.867 493.2C673.333 497.066 675.467 502.666 679.2 502.666C681.067 502.666 682.667 503.333 682.933 504.266C683.333 505.333 684.667 505.2 687.733 503.733C691.6 501.733 692.267 501.733 697.333 504.266C703.333 507.333 708 512.4 708 516.133C708 520.933 705.6 519.733 702.533 513.333C699.333 506.8 699.333 506.8 692.533 506.666C686.667 506.666 685.333 507.2 681.467 511.2C677.2 515.6 677.067 516.133 677.867 523.2L678.8 530.533L672.8 537.066C669.467 540.666 666.667 544.8 666.667 546.266C666.667 548.133 665.2 549.6 662.4 550.666C660 551.6 656.8 552.8 655.333 553.333C653.867 554 651.333 554.933 649.733 555.333C647.867 555.866 646.667 557.2 646.667 558.8C646.667 561.866 643.733 562.133 641.333 559.333C640.4 558.266 638.533 557.333 637.2 557.333C633.867 557.333 626.933 553.066 624.4 549.466C621.467 545.2 623.2 544.666 628 548.133C631.467 550.666 632.533 550.933 634.667 549.6C636.133 548.8 638.133 548.4 639.333 548.8C643.2 550.4 647.467 548 651.6 542.133C654 538.666 658.133 535.066 660.933 533.733C665.333 531.733 666 530.666 666.4 526.4C666.667 523.066 667.733 520.933 669.867 519.466C674.4 516.533 674.933 511.466 671.2 507.866C667.333 504.266 667.2 500.533 670.667 489.6C672.133 484.933 673.333 479.466 673.333 477.466C673.333 475.6 674.8 471.866 676.533 469.2C678.4 466.533 680.533 460.666 681.333 456.133C682.667 448.8 682.533 447.466 680.667 445.333C677.867 442.266 678.933 438.133 684 432.666C686 430.4 688.133 426.533 688.667 424C689.2 421.466 690.267 418.533 690.933 417.6C691.867 416.533 691.867 414.133 690.667 410C689.2 404.666 688.533 404 685.2 404C683.2 404 681.067 403.333 680.667 402.666C680.267 401.866 678.533 401.333 676.8 401.333C675.067 401.333 672.667 400.133 671.333 398.666C669.2 396.266 668.8 396.266 665.6 398.4C663.733 399.6 660.267 404.933 657.333 411.333C652 422.8 647.2 428 639.067 430.933C635.467 432.266 633.6 434 631.867 438C629.733 442.533 629.733 443.6 631.333 444.8C632.933 446 632.933 446.933 631.333 451.466C630.267 454.266 629.467 457.466 629.333 458.533C629.333 459.6 627.467 462 625.2 464C621.067 467.333 621.067 467.466 623.067 471.6C624.267 473.866 626.267 476 627.467 476.533C629.067 477.2 629.467 478.4 628.8 481.733C628.267 484.8 628.8 487.333 630.8 490.533C633.2 494.666 633.333 495.2 631.467 496.266C630.267 496.933 629.333 498.933 629.333 500.666C629.333 502.4 628.667 504.266 627.867 504.8C626 505.866 624 502.933 624 499.2C624 497.6 621.067 492.533 617.333 487.866C613.733 483.2 609.6 477.6 608.4 475.466C604.533 469.066 586.533 450 584.667 450.4C583.733 450.533 582.267 449.733 581.333 448.666C580.267 447.333 578.533 446.933 576.4 447.466C573.467 448.266 573.2 448.133 574.4 445.733C575.333 444.133 575.333 442.4 574.533 441.2C573.867 440.266 573.333 438 573.333 436.4C573.333 432.266 570.533 426.666 568.533 426.666C567.6 426.666 565.2 427.333 563.333 428.266C560 429.733 559.867 430.266 560.667 435.866C561.2 439.066 562.4 442.533 563.467 443.6C564.533 444.666 565.333 446.133 565.333 446.8C565.333 447.466 566.533 448 568 448C569.467 448 570.667 448.533 570.667 449.333C570.667 450 570.133 450.666 569.333 450.666C568.667 450.666 568 454 568 458C568 464.4 567.733 465.333 565.333 465.333C563.867 465.333 562.667 466.266 562.667 467.333C562.667 468.533 561.467 469.333 559.333 469.333C557.467 469.333 555.6 470.266 555.2 471.333C554.667 472.4 553.867 473.333 553.2 473.333C551.067 473.333 551.867 470 554.667 467.6C556.133 466.4 557.333 464.533 557.333 463.6C557.333 461.066 552.533 456.933 550.8 457.866C550.133 458.4 546.667 459.2 543.067 459.866C537.2 461.066 536.533 460.8 532.133 457.066C527.467 452.933 525.067 452.666 512.533 455.333C507.733 456.4 506.4 455.2 507.6 450.933C508.133 448.933 509.333 448 511.6 448C514.667 448 514.8 447.6 514 443.733C512.667 437.733 512.4 437.333 508.133 437.333C502.4 437.333 496 440 496 442.4C495.867 444.266 495.6 444.266 493.867 442C492.667 440.4 490.133 439.333 486.933 439.066C465.467 437.866 457.333 437.733 457.333 438.8C457.333 439.333 456.4 439.6 455.333 439.2C454.267 438.666 451.2 438.8 448.667 439.2C445.2 439.866 444 440.8 444 442.666C444 446.933 439.733 448.266 433.6 445.866C428.8 443.866 428.267 443.2 427.467 437.733C426.133 427.333 426.267 426.933 431.467 425.866C435.333 425.2 436.8 425.6 439.467 428.133L442.667 431.2L445.6 428.4C447.467 426.533 448.533 423.2 449.067 418.933C449.6 413.333 449.067 411.466 446.533 407.733C439.067 397.066 435.333 393.333 431.867 393.333C428.533 393.333 428.4 393.466 429.067 400.4C429.6 406.933 429.333 407.733 426.133 409.733C424.267 411.066 422.667 412.933 422.667 414C422.667 415.2 421.2 416.666 419.467 417.466C416 419.066 413.333 423.733 413.333 428.133C413.333 436.666 402.667 443.2 398.667 437.066C397.6 435.466 395.333 432.533 393.867 430.666C391.067 427.466 390.667 427.466 384.8 429.066C379.6 430.4 378 430.4 374.933 428.8C372.267 427.333 370.533 427.333 368.667 428.266C367.333 429.066 363.333 429.6 359.733 429.466L353.333 429.333V434.533C353.333 437.466 352.533 440.4 351.333 441.333C350.133 442.266 349.467 444.266 349.6 445.866C349.867 448 349.333 448.533 347.333 448.266C345.867 448 344.133 446.933 343.333 445.733C342.667 444.533 340.667 442 339.067 440C337.067 437.466 335.467 432.933 334.4 426.133C332.933 416.4 332.667 416 329.333 416C323.867 416 320 421.066 320 428.4C320 431.733 320.533 434.933 321.333 435.333C323.733 436.8 322.8 442 319.867 443.866C317.2 445.466 316.533 445.2 312.267 440.8C307.867 436.533 307.6 435.866 309.2 432.8C310.667 430.133 310.667 428.533 308.933 423.6C307.067 418 307.067 417.333 309.333 415.333C310.667 414.133 312.133 410.933 312.667 408.266C313.733 402.666 318 397.333 321.6 397.333C326.267 397.333 332.667 382.133 329.6 378.266C327.867 376.133 329.2 368 331.333 368C332.267 368 333.467 370.133 333.867 372.666C335.067 378.8 343.067 396.266 345.867 398.533C347.067 399.466 348 402.266 348 404.8C348 409.733 352.4 413.866 362.667 418.533C370.533 422.133 385.6 421.2 390.4 416.8C399.067 409.066 404.533 389.733 399.6 384.266C396.933 381.2 395.733 374.666 395.467 360.4C395.333 350.4 394.933 348 392.267 344.8C390.667 342.666 389.333 339.6 389.333 337.733C389.333 336 388.4 334.266 387.333 333.866C386.267 333.333 385.333 331.733 385.333 330.133C385.333 328.666 383.6 325.866 381.467 324C379.333 322.133 377.333 318.8 376.8 316.266C376.133 312.266 377.6 310.4 379.333 313.333C379.733 314 381.333 315.333 382.8 316.133C385.467 317.466 385.467 317.2 384.533 311.066C383.467 304 382.4 302.666 376.8 302.666C373.467 302.666 373.067 302.4 373.867 299.066C374.8 295.6 374.8 295.6 371.467 297.866C369.067 299.333 367.333 299.6 365.733 298.8C364.4 298.133 360.267 296.933 356.533 296C349.867 294.533 349.333 294.666 339.467 299.6L329.333 304.533V311.733C329.333 315.6 328.4 320.533 327.333 322.666C325.467 326.4 324.667 326.666 318.133 326.666C311.467 326.666 310.667 327.066 306.133 332C303.467 334.933 301.333 338.266 301.333 339.6C301.333 340.8 299.2 345.466 296.667 350.133C293.333 356 291.333 358.266 290 357.866C288.933 357.466 285.467 358.933 282.4 361.2C279.333 363.466 275.733 365.333 274.4 365.333C272.533 365.333 272 366.4 272 370C272 372.933 271.2 375.066 270 375.466C268.933 376 268 377.866 268 380C268 384.8 264.133 388 258.4 388C253.733 388 253.733 388 252.8 394.933C252.4 398.8 252 404.533 252 407.733C252 416.4 249.867 416.933 210.4 417.466C192.133 417.733 177.333 418.266 177.333 418.533C177.333 418.933 178.667 420.533 180.267 422.266C182.667 424.8 183.067 426.666 182.8 432.266C182.533 438 182.933 439.466 185.333 441.333C187.333 442.8 188.133 444.533 187.733 446.8L187.2 450L185.6 446.266C184.667 444 182.133 441.733 179.333 440.533C176.8 439.466 174.667 438.133 174.667 437.466C174.667 436.933 173.067 435.733 171.067 434.8C167.733 433.333 167.067 433.466 164.667 436.266C163.2 438 160.267 439.466 158 439.6C148.4 440.266 144.133 441.733 140.8 445.466C138.8 447.6 136.533 449.333 135.467 449.333C134.4 449.333 132.933 451.066 132.133 453.333C131.2 456.266 130 457.333 127.6 457.333C123.733 457.333 120 461.2 120 464.933C120 466.933 118.4 468.533 114.667 470.266C110.267 472.266 109.333 473.2 109.733 475.733C110.133 477.866 108.8 480.533 105.867 484.266C100.533 490.533 100.4 492 104.133 498.666C106.533 502.933 106.8 504.4 105.6 507.866C104.267 511.466 104.533 512 107.067 512.8C111.733 514.133 114.667 517.466 114.667 521.2C114.533 524.933 108.4 532.533 104.4 533.866C102.667 534.4 100.8 538.133 98.1334 546.4C96.0001 552.8 93.8668 558.933 93.2001 560.266C92.5334 561.733 92.8001 563.066 94.1334 564.133C96.2668 565.866 95.7334 574 93.3334 576.533C91.3334 578.666 86.0001 576.133 83.7334 572C80.9334 567.066 76.2668 566.933 73.8668 571.733C73.0668 573.466 70.5334 576.8 68.2668 579.066C61.4668 586.266 60.8001 588.8 64.1334 593.466C66.2668 596.533 67.7334 597.333 69.8668 596.8C71.8668 596.266 73.3334 596.933 74.2668 598.666C75.2001 600 77.2001 601.333 78.9334 601.6C85.8668 602.533 86.9334 617.733 80.2668 620.666C78.6668 621.333 76.9334 622.933 76.6668 624.133C76.2668 625.466 74.9334 626.8 73.8668 627.2C72.1334 627.866 72.4001 628.933 75.3334 633.733C79.4668 640.933 79.6001 644.933 75.4668 650.533C72.0001 655.2 72.1334 659.066 76.0001 661.733C77.2001 662.666 78.6668 664.666 79.2001 666.266C79.7334 667.866 82.8001 671.333 86.1334 674C91.8668 678.8 92.1334 679.2 91.8668 685.333C91.6001 691.066 92.0001 692.4 96.4001 697.2C99.0668 700.266 101.333 703.466 101.333 704.533C101.333 705.466 102.267 707.066 103.333 708C104.4 708.933 105.333 710.933 105.333 712.533C105.333 714.133 106 716.133 106.8 716.933C109.467 719.6 106.8 724 102.4 724C97.3334 724 89.3334 731.2 89.2001 736C89.2001 738 87.7334 740.533 85.2001 742.533L81.2001 745.733L76.0001 740.666C71.8668 736.666 69.8668 735.733 64.9334 735.333C58.5334 734.933 51.3334 738.133 49.8668 742C49.0668 744 54.0001 749.2 56.8001 749.333C57.4668 749.333 59.3334 750.266 60.8001 751.466C63.3334 753.466 63.3334 753.466 60.5334 752.666C59.0668 752.266 55.0668 751.733 51.7334 751.466C48.4001 751.2 44.1334 750 42.2668 748.666C36.6668 745.066 34.1334 746.8 35.2001 754L36.1334 760H28.9334C23.4668 760 20.8001 760.666 18.0001 762.933L14.2668 765.866L11.8668 762.933C9.20011 759.466 5.06678 759.2 2.53344 762.133C-0.266558 765.6 -0.133224 776.666 2.80011 780.533C4.13344 782.266 5.33344 785.466 5.33344 787.6C5.33344 789.733 6.53344 793.733 8.00011 796.666C10.0001 800.666 10.6668 804.533 10.6668 813.066C10.6668 824 12.0001 829.333 14.8001 829.333C18.2668 829.333 30.6668 846.8 30.6668 851.6C30.6668 852.533 32.9334 854.8 35.7334 856.666C41.3334 860.4 48.0001 869.466 48.0001 873.333C48.0001 874.666 48.9334 876.4 50.0001 877.333C51.0668 878.266 52.0001 880.933 52.0001 883.333C52.0001 888.133 54.8001 891.2 60.2668 892.533C62.2668 892.933 64.9334 894.8 66.1334 896.666C67.3334 898.533 69.2001 900 70.1334 900C71.2001 900 72.0001 900.666 72.0001 901.6C72.0001 902.4 72.9334 904.133 74.1334 905.466C75.8668 907.466 76.0001 908.533 74.6668 912.266C73.2001 916.133 73.3334 917.333 75.8668 921.333C77.3334 923.866 78.6668 927.333 78.6668 929.066C78.6668 930.666 79.4668 932.4 80.4001 932.8C81.4668 933.2 83.3334 938.266 84.8001 944.266C86.6668 952.4 88.0001 955.2 90.0001 956C93.7334 957.466 106.933 956.666 110.4 954.8C113.6 953.066 114.267 948.266 113.467 929.733C113.067 921.733 113.6 919.2 116.133 914.8C117.733 911.733 119.6 909.333 120.267 909.333C120.8 909.333 121.333 908.666 121.333 907.733C121.333 906.933 122.267 905.2 123.333 904C124.533 902.666 125.733 898.666 126.267 894.8C126.933 889.333 126.533 887.466 124.667 885.333C120.933 881.2 122.933 879.066 131.733 878C138.4 877.2 140.4 876.4 144.8 872.133L149.867 867.066L154 869.466C159.333 872.8 178.667 873.066 181.867 869.866C184.533 867.2 184.533 867.066 181.333 863.066C177.6 858.4 177.733 855.333 181.467 857.6C183.733 859.066 184.4 858.933 186.133 856.666C187.6 854.666 187.867 851.466 187.2 842C186.4 830.8 186 829.733 181.867 825.333C177.733 820.8 177.6 820.4 178.933 815.2C180.267 810.266 180.133 809.333 177.467 805.866L174.4 802L178 799.066C179.867 797.333 182.667 796 184.133 796C188.133 796 192 793.6 192 791.066C192 787.733 198.667 781.333 202.133 781.333C203.733 781.333 206.267 779.866 207.733 778C209.2 776.133 211.333 774.666 212.4 774.666C214.133 774.666 214.4 775.866 213.733 780.933C212.933 788.266 215.2 791.466 221.867 792.266C225.2 792.666 226.133 791.866 228.667 787.333C231.467 782.533 232.267 782 237.467 781.6C240.667 781.333 244.4 780.133 245.733 778.933C247.733 777.2 248.8 777.066 252.667 778.533C257.733 780.266 262 779.6 265.733 776.266C269.067 773.333 272.533 775.6 273.333 781.466C274 785.733 274.267 786 279.467 786C284.933 786 289.333 788.266 289.333 791.2C289.333 792 291.467 793.866 294.267 795.333C298.4 797.6 299.467 799.333 302.267 808C304.933 816.133 305.2 818.4 303.867 820.8C303.067 822.533 302.667 824.8 303.067 825.866C304.133 828.666 308.8 828.533 310.667 825.6C311.867 823.466 312.133 823.466 314.267 826.133C315.6 827.733 317.333 830.133 318.133 831.466C319.733 834.266 328.533 834.533 333.333 832C335.6 830.8 336.933 831.066 340.4 833.2C342.8 834.666 345.333 837.066 346.267 838.533C347.733 840.8 348.4 840.933 352.533 839.733C358.133 838 361.333 839.866 361.333 844.8C361.333 846.533 363.467 850.933 366.133 854.666C370.133 860.266 371.6 861.333 375.2 861.333C377.6 861.333 380.133 860.666 380.8 860C381.733 859.066 383.067 860 385.067 862.666C387.733 866.133 388.933 866.666 394.8 866.666C400.933 866.666 402.133 866.133 406.133 861.733C411.333 856.133 411.467 855.6 408.667 853.333C407.6 852.4 406.667 850.933 406.667 850C406.667 849.066 404.533 845.733 402 842.8C396.8 836.4 397.067 833.466 402.8 833.6C408.133 833.733 410.933 830.8 411.067 824.533C411.333 819.733 411.733 819.333 415.467 818.933C418.133 818.666 420.267 819.466 422 821.333C425.067 824.666 428.267 824.8 431.333 821.333C433.733 818.666 433.733 818.533 429.867 814.266C426 810.133 425.6 808.266 426.533 798.933C426.8 796.4 431.2 797.066 436.4 800.533C440.267 803.2 443.2 803.866 453.467 804.4C460.4 804.8 468.667 805.733 472 806.666C479.733 808.666 483.6 808.666 487.467 806.533C489.867 805.333 491.467 805.2 494 806.4C495.867 807.333 500.933 808 505.067 808C509.2 808 513.467 808.533 514.4 809.066C516.533 810.4 530 807.866 532.267 805.6C534.4 803.466 537.6 803.6 540.8 806C542.133 807.066 544.933 808 546.8 808C548.8 808 550.667 808.8 551.067 809.866C551.467 810.8 553.867 812 556.4 812.533C559.467 813.066 561.333 814.266 561.733 816.133C562.667 819.6 561.333 828.133 559.6 830.266C558.933 831.2 558.8 833.466 559.2 835.2C560.133 839.066 566.4 840.933 570.533 838.8C573.867 836.933 575.067 838.666 573.867 843.2C573.2 846.133 573.6 846.8 576.667 848C579.2 848.933 580.8 848.933 582 848C583.067 847.066 584.933 847.2 587.867 848.4L592.133 850.133L588.933 851.6C585.867 853.066 583.333 859.333 584.933 861.733C585.333 862.4 587.867 862.666 590.533 862.4C593.2 862 596.4 862.4 597.6 863.2C599.333 864.133 601.067 864 604.667 862.266C607.333 861.066 610.267 860 611.2 860C612.133 860 614 858.8 615.333 857.333C616.933 855.6 619.467 854.666 622.667 854.666C625.6 854.666 629.067 853.6 630.933 852C634.133 849.6 636 849.6 636 852.266C636 852.933 634.533 854 632.667 854.666C628 856.4 628 862.266 632.667 864C634.533 864.666 637.2 867.2 638.4 869.6C639.6 871.866 642.533 875.866 644.8 878.533C649.6 884.133 652 890.4 652 897.333C652 900.133 652.933 903.066 654 904C655.067 904.933 656 907.2 656 909.2C656 911.066 657.2 914.666 658.667 917.066C660.133 919.466 661.333 922.266 661.333 923.333C661.333 926.533 665.467 937.866 667.467 940.133C670.133 943.066 675.867 941.733 677.6 937.866C679.6 933.6 684 933.6 684 937.866C684 942 690.933 948 694.667 947.066C696.133 946.666 698.133 947.066 699.2 947.866C701.333 949.733 708.667 948.4 710.8 945.866C711.6 944.8 713.333 944 714.533 944.133C718.133 944.266 728.667 952.666 729.067 955.733C729.333 957.333 732.4 961.6 736 965.333C739.6 969.066 742.667 973.466 742.933 975.066C743.2 977.333 744.933 978.533 750.667 980.4C757.333 982.533 758.4 982.533 763.2 980.666C766 979.466 768.4 978.666 768.667 978.933C768.8 979.2 770.267 981.866 772 984.933C776.133 992.4 782 993.733 788.533 988.666C791.6 986.4 794.533 985.333 798.267 985.333C801.6 985.333 804.4 984.533 805.333 983.2C806.4 982.133 809.067 980.4 811.6 979.333C814 978.266 816 976.533 816 975.466C816 974.266 817.067 973.333 818.533 973.333C819.867 973.333 821.867 972.266 822.8 971.066C826 967.2 836.4 961.333 840.133 961.333C842.533 961.333 843.867 960.533 844.4 958.666C844.8 956.933 846.267 956 848.4 956C850.133 956 852.4 955.066 853.333 954C855.6 951.333 856.533 951.466 861.333 955.466C864.933 958.533 865.867 958.8 868.8 957.466C874 955.2 875.467 955.6 882.667 962C890.667 969.2 895.6 970.533 915.333 971.466L930.533 972.266L937.333 966.4C942.667 961.733 944 959.866 944 956.533C944 954.266 943.067 951.6 942 950.666C940.933 949.733 940 947.333 940 945.333C940 943.333 939.067 940.933 938 940C935.6 938 936.667 932.533 940.133 928.533C941.6 927.066 942.667 925.2 942.667 924.533C942.667 923.733 944.4 921.466 946.533 919.466C950.267 915.866 950.667 915.866 953.467 917.866C955.2 919.066 959.067 920 962.133 920C965.733 920 968.4 920.8 969.867 922.533C971.733 924.666 972.933 924.8 977.333 923.733C987.867 921.066 995.067 924.933 1001.6 937.2C1004.27 942 1012.93 946.533 1019.6 946.666C1027.2 946.666 1037.87 943.733 1041.07 940.8C1045.33 937.066 1061.33 934.666 1068 936.933C1070.53 937.866 1076.13 938.533 1080.27 938.533C1087.2 938.666 1088.27 939.066 1090.8 942.666C1095.2 948.4 1099.87 949.466 1114.67 948C1139.2 945.333 1138.93 945.466 1144.67 939.866C1147.6 937.066 1152.13 933.866 1154.67 932.8C1161.2 930.133 1170.67 921.6 1170.67 918.533C1170.67 915.466 1179.07 905.866 1184 903.333C1187.07 901.733 1188.13 901.866 1192.93 904L1198.27 906.4L1205.07 902.666C1211.33 899.2 1212.67 899.066 1220.27 900C1233.47 901.466 1242.13 897.6 1246 888.4C1247.07 885.866 1249.33 883.466 1251.33 882.666C1255.87 880.933 1255.87 874.933 1251.2 868C1248.13 863.466 1247.87 862.133 1249.07 859.066C1249.87 856.933 1250.8 851.333 1251.33 846.266C1251.73 841.333 1252.67 835.866 1253.47 834.266C1255.47 829.733 1252.93 821.333 1248 816.666C1244.53 813.333 1243.6 812.933 1241.33 814.4C1238.13 816.4 1238.13 816.133 1240.93 806.933C1242.93 800.933 1244.27 798.933 1248.67 796.133C1251.73 794.266 1256.93 790.4 1260.4 787.466C1266.93 782.133 1272.8 780.266 1286 779.2C1289.73 778.933 1296.53 778.4 1301.33 777.866C1309.33 777.2 1310.53 777.466 1315.73 780.8C1318.8 782.8 1321.33 785.333 1321.33 786.266C1321.33 787.333 1323.07 788.8 1325.07 789.733C1330.93 792.266 1339.73 800 1340.53 803.333C1341.07 805.466 1342.67 806.8 1345.33 807.333C1349.33 808.266 1360.53 818.133 1364.4 824.133C1367.2 828.666 1373.87 830.133 1380.4 827.333C1382.93 826.266 1385.47 824.8 1386 824C1387.07 822.266 1402 822.266 1408.53 824.133C1412.13 825.2 1414 825.2 1415.07 824.133C1415.87 823.333 1417.47 822.666 1418.67 822.666C1421.73 822.666 1428 829.6 1428 833.066C1428 835.066 1429.6 836.8 1433.33 838.666C1440.13 842.133 1445.33 842.133 1446.27 838.666C1446.67 837.2 1447.6 836 1448.53 836C1449.33 836 1453.2 833.866 1456.93 831.333C1463.07 827.2 1463.87 826.266 1463.2 822.933C1462.67 820.266 1463.73 817.2 1467.2 811.333C1476.27 795.733 1477.07 795.466 1484.53 803.733C1488.93 808.666 1489.6 809.866 1488.27 811.733C1485.2 816 1485.07 817.466 1487.47 820.133C1490.4 823.333 1493.6 831.466 1493.87 836.133C1493.87 838 1494.67 840.4 1495.47 841.466C1497.33 843.733 1498.8 850.666 1499.2 858C1499.33 860.933 1500.13 864.533 1500.93 866.133C1503.2 870 1499.87 874.666 1494.8 874.666C1489.87 874.666 1484 879.333 1484 883.2C1484 884.8 1482.53 887.6 1480.67 889.333C1476 893.733 1476.13 899.333 1480.93 901.6C1482.93 902.533 1485.87 905.333 1487.33 907.733C1488.8 910.266 1492.53 915.2 1495.73 918.8C1501.87 926.133 1502.67 929.866 1499.33 937.733C1496.4 944.8 1496.8 947.866 1500.8 949.333C1506.93 951.733 1508.8 948.133 1510.27 931.6C1510.8 925.333 1511.2 924.133 1512.67 925.333C1514.93 927.2 1517.33 926 1517.33 922.933C1517.33 921.333 1517.73 921.2 1518.93 922.4C1521.2 924.666 1524 924.4 1530.4 921.333C1533.33 919.866 1537.07 918.666 1538.4 918.666C1540.13 918.666 1542.13 916 1545.33 909.733C1547.73 904.666 1550.8 899.066 1552.13 897.2C1554.27 894.133 1554.53 890.666 1554.53 863.2C1554.53 844.133 1555.07 830.133 1556.13 826.266C1557.87 818.933 1556.27 804.666 1551.87 789.733C1548.27 777.466 1546.4 763.2 1546.67 748.266C1546.93 736.266 1546.8 735.866 1542.8 731.2C1540.53 728.666 1537.73 724.4 1536.67 721.733C1534.27 715.866 1528.67 708.133 1518.8 696.933C1510.4 687.333 1508.4 682.933 1506.93 672C1505.6 662.533 1505.73 662.533 1517.33 667.6C1523.07 670 1526.13 672.266 1527.47 674.933C1528.67 677.066 1533.87 683.466 1539.2 689.066C1549.6 700.133 1554.53 706.666 1556.93 712.266C1557.87 714.266 1561.33 717.333 1565.2 719.333C1570 722 1573.07 725.066 1576.53 730.533C1579.07 734.666 1582.93 739.733 1585.2 741.866C1587.47 744.133 1589.33 746.8 1589.33 748C1589.33 749.066 1592.93 753.6 1597.33 758C1604 764.666 1605.73 765.733 1607.73 764.533C1611.2 762.266 1611.07 759.733 1607.33 754.133C1605.47 751.333 1604 747.733 1604.27 746.266C1604.8 742.8 1611.2 740.8 1616.27 742.533C1622.8 744.8 1623.47 739.333 1617.2 734.133C1612.67 730.266 1609.47 729.733 1606.8 732.266C1605.47 733.733 1604.67 733.466 1603.07 730.933C1601.87 729.333 1599.87 728 1598.53 728C1597.2 728 1595.73 727.333 1595.33 726.666C1594.93 725.866 1592.8 725.333 1590.8 725.333C1588.53 725.333 1585.07 723.6 1581.6 720.533C1577.2 716.8 1576 714.933 1576 711.6C1576 709.2 1574.53 705.066 1572.67 702.4C1568.93 696.933 1568 688 1571.2 688C1574 688 1580 682.666 1580 680.266C1580 678.933 1577.87 676.933 1574.93 675.6C1567.47 672 1558 666.266 1555.47 663.6C1554.13 662.266 1550.93 660 1548.13 658.533C1545.47 657.066 1541.2 654.4 1538.67 652.533C1536.13 650.666 1532.4 648.8 1530.53 648.4C1526 647.6 1518.4 639.866 1514.27 632C1512 627.6 1510.13 625.866 1506.93 625.066C1504.53 624.4 1501.73 622.4 1500.53 620.666C1499.33 618.8 1497.2 617.333 1495.87 617.333C1494.53 617.333 1492.13 615.466 1490.4 613.333C1487.6 609.466 1478.27 605.333 1476.53 607.066C1476 607.466 1476.13 610 1476.53 612.666C1477.33 616.4 1478 617.333 1480.53 617.333C1482.53 617.333 1484.93 619.066 1487.2 622L1490.8 626.666H1487.6C1484.8 626.666 1484.27 627.466 1483.47 632C1482.8 636.133 1481.87 637.733 1479.2 638.666C1474.67 640.4 1468.93 640.4 1467.07 638.533C1466.13 637.6 1462.27 637.2 1457.07 637.6C1450.67 638 1447.33 639.066 1442.93 641.866L1437.33 645.733L1441.33 653.066C1446.13 662 1446.13 662.4 1442.4 662.933C1440.67 663.2 1438.8 664.666 1438 666.4C1436.4 670 1434.67 670.266 1434.67 666.8C1434.67 665.333 1432.8 662.4 1430.53 660C1427.2 656.8 1426 656.266 1424.53 657.466C1422.4 659.2 1422 664.8 1424 666C1424.8 666.4 1425.33 667.866 1425.33 669.066C1425.2 671.866 1419.6 665.466 1416.53 658.933C1415.33 656.666 1414 654.666 1413.47 654.666C1412.93 654.666 1410.8 656.533 1408.67 658.666C1406.53 660.8 1404 662.666 1402.8 662.666C1401.73 662.666 1399.87 663.6 1398.53 664.8C1397.2 666 1395.47 666.533 1394.8 666C1392.93 664.933 1394.4 651.066 1396.67 647.333C1399.73 642.266 1402.53 613.066 1400.13 610.133C1398.13 607.733 1399.73 578 1402.13 573.2C1403.6 570.133 1403.47 569.466 1400.93 566.933C1397.2 563.2 1397.07 554.666 1400.53 550.8C1403.07 548.133 1403.07 547.733 1400.93 543.2C1396.93 534.8 1398.4 527.866 1406.53 517.6C1415.2 506.666 1421.87 500 1424.27 500C1425.6 500 1428.53 499.066 1430.8 498C1434.53 496 1434.53 495.733 1432.67 492.8C1430.53 489.6 1431.2 488 1434.67 488C1437.73 488 1445.87 479.333 1444.67 477.333C1444 476.266 1444.27 475.866 1445.47 476.266C1446.53 476.666 1448.67 475.733 1450.27 474.4L1453.2 471.733L1450.4 468C1446.93 463.2 1448.27 459.066 1454.13 456.533C1456.67 455.466 1458.67 454.133 1458.67 453.466C1458.67 452.4 1469.87 445.333 1471.47 445.333C1471.73 445.333 1472 446.933 1472 448.8C1472 453.066 1474.8 456 1479.2 456C1482 456 1482.8 455.066 1484.13 450.266C1485.07 447.2 1486.93 443.733 1488.4 442.533C1490.67 440.666 1490.93 439.333 1490.27 434.266C1489.47 428.4 1489.6 428.133 1493.07 427.733C1495.73 427.466 1496.8 426.533 1497.07 424C1497.33 422.133 1498.27 420 1499.2 419.333C1500.13 418.533 1501.2 416.4 1501.6 414.266C1502.27 411.066 1501.87 410.666 1498.8 410.666C1496.93 410.666 1493.87 411.866 1492 413.333C1488.4 416 1485.33 414.933 1485.33 410.933C1485.33 409.733 1484.13 407.6 1482.67 406C1480.8 404 1479.87 400.533 1479.2 393.333C1478.67 387.866 1477.47 382.133 1476.53 380.666C1475.47 379.2 1474.67 376 1474.67 373.333C1474.67 370.133 1473.87 368.133 1472 366.933C1468.8 365.066 1468.27 356.8 1471.07 353.466C1472.13 352.266 1473.73 348.533 1474.53 345.2C1476 340 1476.67 339.066 1478.8 339.6C1480.8 340.133 1481.87 339.333 1483.07 336.133C1484.53 332.133 1486.67 330.533 1486.67 333.333C1486.67 335.066 1497.2 346.666 1498.8 346.666C1499.47 346.666 1500 345.066 1500.13 342.933C1500.13 339.6 1500.4 339.733 1502.53 344.666L1504.93 350L1506.67 344.533C1507.6 341.466 1508 336.266 1507.47 332.533C1505.47 315.6 1504.93 312.533 1503.87 311.466C1502 309.466 1502.4 308 1504.67 308C1506 308 1506.67 306.666 1506.67 304C1506.67 300.8 1506.13 300 1503.73 300C1502 300 1498.13 297.6 1495.2 294.666C1490.27 290.133 1489.73 289.066 1490.53 285.2C1491.47 280.266 1494.67 278.266 1494.67 282.666C1494.67 286.133 1506.53 298.266 1511.07 299.333C1512.93 299.866 1516 302.666 1518 305.733C1520.93 310.266 1521.47 312.133 1520.67 316C1520.13 318.533 1519.47 322.4 1519.07 324.4C1518.67 326.666 1519.07 328.933 1520.4 330.4C1522.53 332.8 1532 358.933 1532 362.533C1532 363.733 1533.6 367.066 1535.6 369.866C1537.47 372.8 1540.4 380.533 1542.13 387.2C1544.67 397.733 1544.8 399.6 1543.2 401.466C1542 402.8 1541.6 405.066 1542.13 407.6C1542.53 410 1542.27 412 1541.47 412.533C1540.67 413.066 1540 414.933 1540 416.8C1540 419.066 1540.8 420 1542.53 420C1545.33 420 1549.33 425.333 1549.33 429.066C1549.33 430.533 1550.27 432.4 1551.33 433.333C1552.4 434.266 1553.33 436.4 1553.33 438.133C1553.33 440.133 1556.4 444.666 1562 450.8C1566.8 456 1570.67 460.666 1570.67 461.333C1570.67 463.6 1584.4 471.066 1595.6 474.666C1602 476.8 1608.27 479.6 1609.33 480.933C1612.4 484.533 1617.73 487.733 1629.73 492.8C1635.73 495.466 1641.87 498.666 1643.47 500.133C1644.93 501.466 1647.2 502.666 1648.53 502.666C1649.73 502.666 1652.8 504.133 1655.2 506C1657.73 507.866 1661.33 509.333 1663.73 509.333C1666.53 509.333 1668.67 510.4 1670.53 512.8L1673.33 516.4V509.2C1673.33 505.2 1672.4 498.4 1671.33 494C1670.27 489.6 1669.47 484.4 1669.33 482.533C1669.33 479.866 1666.93 476.666 1660.27 470.4C1649.87 460.666 1649.07 459.066 1650.13 452C1650.8 448 1651.6 446.666 1653.87 446.4C1658.13 445.733 1657.73 439.866 1653.33 438.666C1643.2 435.866 1637.2 429.466 1635.33 419.6C1634.53 414.8 1634.93 414 1640 409.333C1644.8 404.933 1645.2 404 1644.13 400.933C1642.27 396 1636.8 392.8 1632.13 393.733C1629.6 394.266 1627.73 393.866 1626.67 392.8C1625.87 391.733 1623.87 390.533 1622.13 390.133C1618.93 389.333 1613.33 381.466 1613.33 377.866C1613.33 376.8 1614.27 375.6 1615.47 375.066C1616.53 374.666 1618.13 372.8 1618.8 370.933C1619.87 368.266 1619.47 367.066 1617.2 364.4C1614.27 361.333 1607.6 360.133 1606.13 362.533C1604 366 1592 358.533 1592 353.733C1592 351.6 1582.93 341.733 1582.13 342.933C1578.93 347.6 1576.27 353.733 1576.8 355.333C1578 358.4 1575.33 357.733 1568.93 353.333C1562.4 348.933 1561.33 347.2 1561.33 341.066C1561.33 337.733 1559.6 335.066 1553.33 328.533C1546 320.933 1545.47 319.866 1546.27 315.733C1546.67 313.066 1548.8 309.866 1551.47 307.6C1556.67 303.2 1557.07 301.866 1553.33 300.666C1551.87 300.133 1550.67 298.666 1550.67 297.2C1550.67 295.733 1550 293.2 1549.2 291.6C1547.73 288.8 1547.73 288.8 1550.13 290.8C1551.47 291.866 1554.27 293.466 1556.4 294.4C1559.73 295.866 1560 295.733 1560 292.4C1560 290.533 1558.8 286.933 1557.2 284.533C1554.93 280.8 1554.67 279.333 1555.87 275.2C1556.8 271.866 1556.8 269.6 1555.87 268.533C1554.93 267.466 1555.6 265.466 1557.87 262C1559.73 259.333 1561.6 256 1562 254.533C1563.07 251.466 1568.13 250 1571.73 251.866C1573.87 252.933 1574.93 252.666 1577.33 249.866L1580.53 246.666L1576.4 242.266C1572.13 237.866 1569.33 230.4 1569.33 223.466C1569.33 221.466 1567.87 218 1566 215.866C1564.27 213.733 1562.4 209.733 1562 206.933C1561.47 204.266 1560 198.133 1558.53 193.466C1557.2 188.8 1556 181.866 1556 178.133C1555.87 174.4 1554.93 168.933 1553.87 166C1552.67 163.066 1551.6 159.333 1551.47 157.6C1551.2 156 1550 153.733 1548.53 152.666C1546.13 150.8 1546.13 150.8 1549.07 150.666C1551.2 150.666 1552.53 149.466 1553.6 146.666C1554.4 144.133 1556.13 142.4 1558.13 141.866C1560.67 141.2 1561.33 140.133 1561.33 136.666C1561.33 134.266 1560.4 131.466 1559.2 130.533C1558 129.6 1556.53 127.333 1555.87 125.733C1554.93 123.2 1554.27 122.8 1552.27 123.866C1550.93 124.666 1548.53 124.8 1546.93 124.4C1545.2 124 1542.53 124.666 1540.53 126C1538.67 127.2 1536.8 127.866 1536.4 127.466C1535.87 127.066 1534.67 127.466 1533.6 128.4C1532 129.6 1531.47 129.6 1531.07 128.266C1530.67 127.2 1527.6 126.666 1522.4 126.666C1515.47 126.666 1514 127.066 1511.73 130C1510.27 131.866 1508 133.333 1506.4 133.333C1503.87 133.333 1503.87 133.333 1506.67 128.666C1509.2 124.533 1509.33 123.333 1508 117.066C1506.93 111.466 1505.2 108.533 1499.73 102.8C1493.2 96.133 1492.67 95.733 1487.73 96.533C1483.07 97.333 1482.53 97.0663 1481.33 93.8663C1480.53 91.8663 1480.13 90.133 1480.27 89.9996C1481.6 88.933 1492 88.533 1493.73 89.4663C1495.2 90.3996 1496.53 89.733 1498.67 87.0663C1501.07 83.9996 1501.47 82.2663 1500.8 77.1996C1499.73 69.4663 1501.2 68.133 1509.87 68.3996C1514.93 68.6663 1516.67 68.133 1517.87 66.133C1522.67 58.133 1525.2 55.4663 1529.33 54.133C1533.07 52.933 1534.13 51.733 1535.6 46.933C1536.53 43.4663 1536.8 39.9996 1536.13 38.2663C1535.47 36.6663 1535.2 33.8663 1535.6 31.9996L1536.13 28.6663L1532.53 32.2663L1528.93 35.8663L1523.2 29.5996C1519.07 25.0663 1517.47 23.9996 1517.33 25.733C1517.33 27.5996 1516.8 27.8663 1515.07 26.933C1513.6 25.9996 1512.8 23.8663 1512.8 20.533C1512.67 16.133 1512.27 15.4663 1510.13 15.733C1508 16.133 1507.73 15.8663 1509.07 14.3996C1510.27 12.7996 1510 11.8663 1507.33 9.33296C1505.47 7.59962 1504 4.79962 1504 3.06629C1504 -0.400377 1503.6 -0.400377 1498.4 1.86629ZM1502.67 133.333C1502.67 134 1501.47 134.666 1499.87 134.666C1498.4 134.666 1497.6 134 1498 133.333C1498.4 132.533 1499.73 132 1500.8 132C1501.87 132 1502.67 132.533 1502.67 133.333ZM1500 140C1500 140.666 1499.33 141.333 1498.53 141.333C1497.87 141.333 1497.6 140.666 1498 140C1498.4 139.2 1499.07 138.666 1499.47 138.666C1499.73 138.666 1500 139.2 1500 140ZM922.133 315.733C919.2 316.4 918.133 315.333 919.333 313.333C920 312.266 920.8 312.4 922.267 313.6C924.267 315.2 924.133 315.333 922.133 315.733ZM954.133 380.8C953.467 383.333 953.867 384 956 384C960.133 384 959.2 386.266 953.467 389.866C950.533 391.733 947.867 394.4 947.333 395.866C946.933 397.2 944.933 398.666 942.933 398.933C940.933 399.333 938.133 400.133 936.667 400.8C934.267 401.733 934.267 401.6 937.067 398.133C938.667 396 940 393.6 940 392.533C940 391.6 941.867 390.533 944 390C946.8 389.333 948 388.4 948 386.4C948 382.933 952.133 376 953.733 376.933C954.4 377.333 954.533 379.066 954.133 380.8ZM711.467 446.8C712.533 447.866 713.333 449.466 713.333 450.266C713.333 451.066 714.133 452 715.067 452.4C716.133 452.8 716 453.333 714.4 454C713.2 454.533 710.8 453.866 708.8 452.666C706 450.8 705.333 449.333 705.333 444.8C705.333 437.733 706.933 435.866 708.533 440.933C709.2 442.933 710.533 445.6 711.467 446.8ZM1489.2 640.266C1490 641.2 1492.4 644.133 1494.67 646.8C1499.33 652.4 1499.87 656 1496 656C1494.4 656 1492.53 654.4 1491.33 652C1490 649.466 1488.27 648 1486.53 648C1484.13 648 1483.87 647.733 1485.47 645.866C1486.8 644.266 1486.8 643.2 1485.6 641.2C1484.27 639.2 1484.4 638.666 1486 638.666C1487.07 638.666 1488.53 639.466 1489.2 640.266Z" fill="black"/>
<path d="M1354.53 47.3327C1350.27 50.1327 1349.6 51.3327 1348.8 57.5993C1348 63.866 1348.4 65.5993 1351.33 70.9327C1355.2 77.9993 1359.07 79.5993 1362.8 75.866C1364.13 74.5327 1365.47 72.9327 1365.47 72.266C1367.73 59.466 1367.2 47.9993 1364.27 45.866C1361.2 43.466 1360.13 43.5993 1354.53 47.3327Z" fill="black"/>
<path d="M626.666 156.266C625.466 158.666 625.6 160.266 627.2 163.333C628.933 166.533 628.933 167.466 627.466 168.266C624.266 170.133 626.666 176 631.466 178.4C635.733 180.4 637.733 183.466 637.866 188C638 189.733 646.533 193.733 647.866 192.533C648.133 192.266 646.933 190.8 645.2 189.333C642.533 187.2 642.266 186.533 644 185.466C645.6 184.4 645.6 183.733 643.466 181.466C642 179.866 640.133 178.666 639.066 178.666C638 178.666 637.6 178 638 177.333C638.4 176.533 641.733 176 645.2 176C652.533 176 657.6 172.266 654.8 168.8C653.6 167.333 654.266 166.266 658.266 163.2C663.2 159.466 663.2 159.466 660 158.533C654.666 157.066 653.333 157.2 653.333 159.333C653.333 160.533 652.133 161.333 650.133 161.333C648.266 161.333 646.4 162 646 162.666C645.466 163.466 644 162.666 642.4 160.666C640.8 158.666 638.4 157.333 636.4 157.333C634.4 157.333 631.866 156.4 630.533 155.2C628.266 153.2 628 153.2 626.666 156.266ZM636 166.666C636 167.333 635.066 168 634 168C632.933 168 632 167.333 632 166.666C632 165.866 632.933 165.333 634 165.333C635.066 165.333 636 165.866 636 166.666Z" fill="black"/>
<path d="M684.267 166.666C684.667 169.199 684.267 170.666 683.2 170.666C682.267 170.666 681.867 169.599 682.267 167.999C682.8 165.866 682.267 165.332 679.467 165.332C675.867 165.332 675.734 166.132 679.2 170.532C680 171.466 680.667 173.332 680.667 174.532C680.667 175.732 682 176.799 683.6 177.066C685.734 177.332 686.667 176.666 687.067 174.399C687.6 171.332 687.6 171.332 687.867 174.266C688 176.932 688.267 177.066 691.334 175.732C693.734 174.666 694.534 173.466 693.867 172.132C693.467 170.932 692.4 168.399 691.734 166.266C690.8 163.599 689.467 162.666 687.067 162.666C684.134 162.666 683.734 163.066 684.267 166.666Z" fill="black"/>
<path d="M705.867 169.6C706.267 170.533 707.067 172.4 707.467 173.6C708 174.933 709.467 176 710.8 176C712.667 176 713.334 175.067 713.334 172C713.334 168.4 712.934 168 709.2 168C706.4 168 705.334 168.533 705.867 169.6Z" fill="black"/>
<path d="M672.001 171.331C672.001 172.531 670.801 173.331 668.801 173.331C664.534 173.331 663.201 175.598 665.734 178.398C666.667 179.598 668.001 181.731 668.401 182.931C668.934 184.398 670.667 185.331 672.667 185.331C676.001 185.331 676.001 185.331 674.001 181.331C672.801 179.065 671.334 177.598 670.667 177.998C669.867 178.398 669.734 177.998 670.134 176.931C671.201 173.865 676.001 175.865 676.001 179.331C676.001 182.398 680.267 187.331 681.734 185.731C683.467 184.131 682.667 180.398 680.001 177.998C678.534 176.665 677.334 174.131 677.334 172.398C677.334 170.265 676.534 169.331 674.667 169.331C673.201 169.331 672.001 170.265 672.001 171.331Z" fill="black"/>
<path d="M650.933 179.465C651.466 179.865 651.333 181.465 650.533 182.932C648.8 186.265 651.066 189.332 655.466 189.332C657.733 189.332 658.4 188.799 657.866 187.332C657.2 185.865 658 185.332 660.666 185.332C663.6 185.332 664.133 184.799 663.733 182.265C663.333 179.732 662.4 179.332 656.666 178.932C653.066 178.665 650.533 178.932 650.933 179.465Z" fill="black"/>
<path d="M690.8 181.865C690 182.798 689.733 184.798 690.267 186.131C691.067 188.531 691.067 188.531 688.4 186.265C685.733 183.865 685.6 183.998 682.133 188.265C679.6 191.465 678.667 191.998 678.667 190.265C678.667 188.798 677.6 187.998 675.333 187.998C673.467 187.998 672 188.531 672 189.198C672 189.865 670.133 190.265 667.867 190.131C663.6 189.998 663.2 190.531 662.4 196.531C661.867 199.998 670.667 202.131 675.067 199.731C678.533 197.865 683.867 197.465 684.8 198.931C686.133 201.065 690.533 199.998 694.533 196.531C697.467 193.998 698.667 193.598 698.667 195.065C698.667 197.198 701.333 198.665 705.067 198.665C706.267 198.665 708.933 197.065 710.933 195.065C716.933 189.331 715.333 181.598 708.933 185.731C704.667 188.398 699.6 189.465 697.333 187.998C696 187.065 695.867 186.665 697.067 186.665C697.867 186.665 698.667 185.198 698.667 183.331C698.667 180.665 698 179.998 695.467 179.998C693.733 179.998 691.6 180.798 690.8 181.865Z" fill="black"/>
<path d="M1129.47 182.534C1127.6 186.001 1129.6 189.601 1132.8 188.401C1135.2 187.468 1135.2 185.201 1132.8 182.001C1131.07 179.601 1130.93 179.601 1129.47 182.534Z" fill="black"/>
<path d="M837.867 202.267C837.467 203.733 835.067 205.867 832.533 207.333C828.8 209.333 828 210.533 828 214.133C828 216.533 827.333 220.133 826.4 222C825.2 224.667 825.333 226.133 826.667 229.067C827.733 231.067 828.8 233.2 829.2 233.867C829.467 234.533 827.867 234.667 825.333 234.267C821.333 233.467 821.067 233.6 821.867 236.4C822.267 238 822.667 240.4 822.667 241.6C822.667 244.667 830.533 248.533 832.8 246.533C834 245.6 834.667 245.467 834.667 246.4C834.667 247.067 833.733 248.4 832.667 249.333C830.4 251.2 832.267 254.667 835.467 254.667C836.533 254.667 838 256.133 838.667 258C839.333 259.733 841.733 262.133 844 263.333C846.133 264.4 848 266 848 266.8C848 267.867 848.533 267.867 849.867 266.8C851.467 265.467 852.533 265.6 855.2 267.333C859.333 270.133 864.133 269.2 868 265.067C870.667 262.267 870.667 262.133 868 257.733C866.533 255.2 866 253.067 866.8 252.667C867.467 252.133 867.867 248.533 867.6 244.4C867.2 237.867 866.667 236.8 863.6 235.067C861.6 234 859.333 233.6 858.667 234C857.867 234.4 857.333 233.6 857.333 232.133C857.333 230.533 856.533 229.333 855.467 229.333C854.4 229.333 853.2 228.4 852.8 227.2C851.467 223.867 851.867 217.333 853.333 217.333C855.867 217.333 854.667 214.267 850.133 209.333C847.733 206.667 845.467 203.733 845.2 203.067C844.933 202.267 843.333 201.2 841.6 200.667C839.2 200 838.267 200.267 837.867 202.267ZM837.867 239.333C837.333 240.4 836.8 241.333 836.533 241.333C836.267 241.333 836 240.4 836 239.333C836 238.267 836.533 237.333 837.333 237.333C838 237.333 838.267 238.267 837.867 239.333Z" fill="black"/>
<path d="M674.8 203.065C672 205.865 673.066 209.332 676.666 209.332C678.533 209.332 680 208.799 680 208.132C680 207.465 680.4 205.999 680.8 204.932C681.6 202.532 676.8 201.065 674.8 203.065Z" fill="black"/>
<path d="M817.334 204.665C816 206.399 816.134 207.199 818 209.332C820.267 211.865 820.534 211.865 822.934 209.865C826.4 206.532 826 202.665 822.134 202.665C820.4 202.665 818.267 203.599 817.334 204.665Z" fill="black"/>
<path d="M1163.6 206.665C1160.13 209.598 1158.67 210.132 1157.6 209.065C1156.4 207.865 1154.93 208.532 1151.47 211.865C1147.47 215.732 1146.53 215.998 1144 214.665C1141.33 213.198 1141.2 213.332 1142 216.265C1144.67 224.932 1151.73 229.865 1156 225.998C1157.2 224.932 1159.73 223.998 1161.6 223.998C1167.6 223.998 1173.73 218.665 1175.07 212.265C1177.07 202.265 1171.6 199.598 1163.6 206.665Z" fill="black"/>
<path d="M769.067 208.133C766 209.866 766 211.599 769.2 213.333C771.2 214.266 772.533 213.999 774.933 212.133C776.533 210.666 777.733 209.333 777.333 208.933C775.6 207.333 771.067 206.933 769.067 208.133Z" fill="black"/>
<path d="M1130.67 222.267C1128.13 222.667 1124.93 223.867 1123.73 224.934C1121.87 226.534 1120.93 226.667 1119.47 225.467C1118 224.267 1116.53 224.267 1112.67 225.867C1107.73 228 1107.6 228.4 1110.27 235.334C1110.8 236.934 1100.13 237.2 1097.6 235.6C1096.53 234.8 1095.73 235.734 1095.2 238.667C1094.67 240.934 1093.73 243.067 1093.2 243.467C1091.6 244.4 1091.73 250.267 1093.33 251.334C1094.13 251.734 1094.67 253.2 1094.67 254.534C1094.67 255.867 1095.87 257.334 1097.2 257.734C1098.67 258 1100 259.734 1100.27 261.334C1100.67 264.667 1102.13 265.6 1110 268C1118.27 270.4 1124.27 269.334 1125.33 265.334C1126.93 259.467 1133.2 250.667 1135.2 251.467C1137.87 252.534 1142.93 245.334 1142.27 241.6C1142 240 1142.27 238.267 1142.8 237.867C1144.67 236.8 1144.13 232.4 1142 230.134C1140.93 229.067 1140 226.667 1140 224.8C1140 221.2 1140.13 221.2 1130.67 222.267Z" fill="black"/>
<path d="M750 240.533C747.466 242.4 747.466 242.533 750.666 245.2C752.533 246.667 754.4 247.867 754.8 248C756.666 248 757.066 242.267 755.333 240.533C753.066 238.267 753.066 238.267 750 240.533Z" fill="black"/>
<path d="M875.6 249.067C874.4 250.4 873.067 254.933 872.533 259.067C872 263.333 871.067 267.067 870.533 267.467C869.867 267.867 869.333 270.4 869.333 273.067C869.333 275.733 868.8 280.267 868.133 282.933C867.2 287.2 867.333 288 869.333 288.667C870.8 289.067 873.867 288 876.8 286C879.6 284.133 883.333 282.267 885.2 281.733C890.8 280.533 897.2 276 899.333 272.133C901.067 268.8 900.933 267.867 898.4 262.933C896.933 259.867 895.2 257.733 894.533 258.133C893.733 258.533 892 257.333 890.4 255.333C888.933 253.467 886.933 252.133 886 252.533C884.933 252.933 883.867 251.867 883.467 249.867C882.4 246 878.667 245.6 875.6 249.067Z" fill="black"/>
<path d="M1087.33 258.665C1086.93 259.332 1087.2 260.932 1087.87 262.265C1088.53 263.599 1089.47 265.732 1089.87 266.932C1090.27 268.265 1091.87 269.332 1093.33 269.332C1096.4 269.332 1097.07 264.399 1094.67 259.865C1093.2 257.199 1088.67 256.399 1087.33 258.665Z" fill="black"/>
<path d="M1151.2 268.131C1146.8 272.798 1145.6 272.931 1145.07 269.065C1144.67 265.598 1140.8 264.398 1138 266.665C1135.2 268.931 1135.47 272.398 1138.8 276.531C1141.47 279.865 1141.73 279.998 1143.33 277.865C1144.8 275.731 1145.07 275.731 1146.8 278.798C1147.73 280.531 1148.4 282.931 1148.27 284.131C1148 285.331 1148.8 286.931 1149.87 287.865C1151.47 289.198 1152 288.931 1152.67 286.798C1153.2 285.198 1155.87 283.331 1159.73 281.998C1163.2 280.931 1167.47 278.798 1169.2 277.465C1172.13 275.198 1172.27 274.931 1170.13 270.931C1168.53 267.865 1166.93 266.665 1164.67 266.665C1162.93 266.665 1160 266.131 1158.27 265.465C1155.47 264.398 1154.4 264.798 1151.2 268.131Z" fill="black"/>
<path d="M901.867 274.133C902.267 276.533 907.467 279.867 910.934 280C914 280 915.067 277.867 913.334 274.667C911.467 271.2 901.334 270.667 901.867 274.133Z" fill="black"/>
<path d="M1110 290.798C1109.47 291.598 1109.33 292.265 1109.47 292.531C1116 296.798 1117.6 297.465 1119.33 295.998C1122.4 293.465 1119.47 289.331 1114.67 289.331C1112.53 289.331 1110.4 289.998 1110 290.798Z" fill="black"/>
<path d="M677.333 297.066C674 298.8 670.267 301.2 669.067 302.266C666.133 304.8 652.667 303.733 649.333 300.666C646.4 298.133 643.467 298.133 641.2 300.8C639.867 302.4 637.867 302.8 633.733 302.266C627.333 301.6 620.133 303.6 616.133 307.2C614.267 308.933 612.4 309.333 610 308.8C607.6 308.133 606.667 308.533 606.667 310C606.667 312.4 605.067 312.533 603.067 310.533C600.8 308.266 598.667 310.4 598.933 314.4C599.333 319.333 597.867 321.333 593.733 321.333C591.733 321.333 590.667 321.733 591.067 322.133C592.533 323.6 581.6 330.533 575.2 332.266C568.267 334.133 566.4 336.8 570 339.466C571.333 340.533 571.733 341.333 570.933 341.333C570 341.333 569.333 342.133 569.333 343.2C569.333 344.533 567.867 344.8 563.333 344.266C557.6 343.733 557.333 343.866 557.333 347.066C557.333 349.6 556.8 350.4 555.467 349.866C554.4 349.466 552 350.133 550 351.466C546.8 353.6 546.667 354 548.533 355.333C550.4 356.8 550.4 357.2 548.133 359.2C546.8 360.4 542.667 361.733 538.933 362.266C531.733 363.066 529.333 365.2 527.6 371.866C526.933 374.4 527.733 376.133 531.6 379.6C537.467 385.2 539.467 392.133 535.867 395.2C534.4 396.4 533.333 398.4 533.333 399.733C533.333 402.4 542.533 412 545.067 412C546 412 546.667 412.533 546.667 413.2C546.667 413.866 548 414.666 549.733 414.933C551.6 415.2 552.8 416.4 553.067 418.266C553.467 421.2 553.6 421.2 558.133 419.066C563.067 416.666 563.6 414.533 560.8 409.333C559.467 407.2 559.333 405.066 560.133 402.933C560.8 401.066 560.8 398.933 560.133 397.6C558.533 394.533 559.867 383.066 562.133 381.2C563.2 380.4 564 378.933 564 377.866C564 376.933 565.2 375.866 566.533 375.333C568.133 374.933 569.333 373.066 569.6 370.933C569.867 368 570.8 367.2 574 366.933C576.8 366.666 578.8 365.2 581.067 362C582.667 359.466 584.8 357.333 585.867 357.333C586.8 357.333 588.4 356.4 589.333 355.333C590.533 353.866 591.467 353.6 592.533 354.666C594.667 356.8 596 356.266 596 353.333C596 351.866 596.933 350.666 598 350.666C599.067 350.666 600 350.133 600 349.333C600 348.666 602.4 346.4 605.333 344.533C608.267 342.533 610.667 340.133 610.667 339.066C610.667 337.866 611.467 337.333 612.667 337.866C613.733 338.266 614.667 338 614.667 337.333C614.667 336.533 616.8 336 619.467 336C625.6 336 629.467 333.866 628.4 331.2C627.333 328.533 630.133 326.666 635.467 326.666C637.733 326.666 640.4 325.733 641.333 324.666C642.533 323.2 645.733 322.666 652.8 322.666C658.133 322.666 662.8 322.133 663.333 321.333C663.867 320.533 665.2 320.666 667.2 321.466C669.6 322.533 671.2 322.4 674.4 320.8C676.667 319.6 680 318.666 681.6 318.666C683.467 318.666 686.8 316.666 689.733 313.6C693.467 309.733 694.667 307.466 694.667 304C694.533 294.533 687.467 291.733 677.333 297.066Z" fill="black"/>
<path d="M915.467 295.598C914.4 298.398 916.534 300.665 919.2 299.598C922.134 298.532 921.867 296.398 918.8 294.798C916.8 293.732 916.134 293.865 915.467 295.598Z" fill="black"/>
<path d="M811.466 310.134C810.933 311.334 811.333 313.201 812.266 314.267C813.733 316.001 814.266 315.867 816.266 313.334C817.6 311.734 818.666 309.867 818.666 309.201C818.666 307.067 812.266 308.001 811.466 310.134Z" fill="black"/>
<path d="M852.667 310.665C851.334 312.132 849.334 313.332 848.134 313.332C846.534 313.332 846.667 313.998 848.934 316.265C851.867 319.065 852 319.065 854.667 316.665C857.334 314.265 858.4 307.998 856.267 307.998C855.6 307.998 854 309.198 852.667 310.665Z" fill="black"/>
<path d="M1563.6 316.268C1560.67 317.868 1560.53 328.268 1563.33 330.668C1564.4 331.602 1565.33 333.468 1565.33 334.802C1565.33 336.268 1567.07 338.135 1569.47 339.468L1573.73 341.602L1572.8 336.535C1572.27 333.602 1571.73 328.135 1571.6 324.135C1571.33 318.268 1570.8 316.802 1568.53 316.002C1567.07 315.335 1564.8 315.468 1563.6 316.268Z" fill="black"/>
<path d="M1675.2 329.465C1671.2 330.931 1670 333.198 1672.27 335.465C1673.87 337.065 1674.67 336.798 1677.87 333.465C1681.73 329.331 1680.53 327.465 1675.2 329.465Z" fill="black"/>
<path d="M769.467 340.532C767.2 343.199 771.067 345.865 775.6 344.665L779.333 343.732L776 341.199C772 338.265 771.467 338.132 769.467 340.532Z" fill="black"/>
<path d="M1652 342.665C1651.07 343.199 1650.8 344.799 1651.33 346.532C1652 348.932 1653.2 349.332 1659.2 349.332C1664.53 349.332 1666.8 348.665 1668.67 346.665C1670 345.199 1670.67 343.599 1670.27 343.065C1668.93 341.865 1654 341.465 1652 342.665Z" fill="black"/>
<path d="M764.8 355.068C762 357.201 762.933 362.668 766.133 362.668C768.8 362.668 770 359.201 768.533 355.868C767.467 353.601 767.067 353.468 764.8 355.068Z" fill="black"/>
<path d="M965.6 359.066C962.4 362.399 961.734 366.666 964.267 366.666C965.067 366.666 966.8 367.599 968 368.666C970.134 370.533 970.667 370.399 974.534 367.333C977.467 364.799 978.667 362.533 978.667 359.866C978.667 356.266 978.267 355.999 973.6 355.999C970 355.999 967.6 356.933 965.6 359.066Z" fill="black"/>
<path d="M785.066 377.202C783.066 379.202 783.466 381.868 786.133 385.202C787.066 386.268 790.666 382.268 790.666 380.002C790.666 376.135 787.733 374.668 785.066 377.202Z" fill="black"/>
<path d="M678.667 385.067C678.667 385.733 677.067 386.933 675.2 387.867C673.2 388.8 672 390.133 672.4 391.2C672.8 392.133 672.534 393.6 671.867 394.267C669.467 396.667 674.534 400.4 679.067 399.467C681.2 399.067 683.867 398.667 684.8 398.667C687.6 398.667 687.067 395.2 683.334 389.333C680 384.133 678.667 382.933 678.667 385.067Z" fill="black"/>
<path d="M764.934 387.6C763.2 389.2 764 392 766.267 392C767.467 392 769.6 392.933 770.934 394.267C773.2 396.267 773.334 396.267 773.334 392.4C773.334 389.867 772.534 388 771.2 387.467C768.534 386.4 766 386.4 764.934 387.6Z" fill="black"/>
<path d="M712 395.335C709.866 397.868 712.8 402.135 715.2 400.135C716.133 399.335 718.133 399.068 719.733 399.601C723.066 400.401 723.333 399.735 721.333 395.868C719.6 392.801 714.4 392.535 712 395.335Z" fill="black"/>
<path d="M471.467 410C464.934 418.4 470.801 425.067 482.934 423.2C490.001 422 491.467 418.267 487.734 410.8C485.334 405.867 484.534 405.333 480.001 405.333C475.867 405.333 474.401 406.133 471.467 410Z" fill="black"/>
<path d="M317.867 409.999C317.333 411.066 317.733 412.932 318.667 413.999C320.133 415.866 320.667 415.866 322.933 413.732C325.333 411.599 325.333 411.332 323.2 409.732C320.133 407.466 318.8 407.599 317.867 409.999Z" fill="black"/>
<path d="M733.867 415.335C733.067 418.535 735.067 422.668 737.467 422.668C738.133 422.668 739.6 421.201 740.8 419.335C742.533 416.668 742.667 415.601 741.333 414.001C738.667 410.801 734.8 411.601 733.867 415.335Z" fill="black"/>
<path d="M11.2002 419.201C9.73354 420.401 7.20021 420.801 4.93354 420.401C1.46688 419.735 1.33354 419.868 2.53354 422.801C7.33354 435.201 11.8669 443.068 18.2669 450.401L25.6002 458.668L31.0669 455.735C38.5335 451.601 40.2669 446.801 36.2669 441.335C34.4002 438.935 33.3335 435.468 33.3335 432.268C33.3335 428.135 32.6669 426.535 30.1335 424.935C27.3335 423.068 26.8002 423.068 24.9335 424.935C22.9335 426.935 22.6669 426.935 21.8669 424.535C20.5335 421.068 17.2002 417.335 15.3335 417.335C14.5335 417.335 12.6669 418.135 11.2002 419.201Z" fill="black"/>
<path d="M1668.8 520.665C1666.8 523.732 1666.8 524.265 1668.8 527.332C1670.27 529.598 1670.8 532.265 1670.27 535.198C1669.33 540.932 1673.2 545.465 1676.67 542.665C1677.73 541.732 1678.67 539.732 1678.67 538.132C1678.67 536.532 1679.33 534.532 1680.13 533.732C1681.2 532.665 1680.8 530.798 1678.8 527.198C1677.33 524.265 1675.87 520.932 1675.47 519.598C1674.4 516.265 1671.33 516.798 1668.8 520.665Z" fill="black"/>
<path d="M1680 555.2C1680 556.934 1680.93 559.067 1682.13 560C1683.73 561.467 1684.53 561.334 1686.4 559.467C1688.53 557.334 1688.53 557.067 1685.33 554.667C1680.93 551.2 1680 551.334 1680 555.2Z" fill="black"/>
<path d="M1700 628.668C1700 634.268 1700.27 634.668 1703.47 634.668C1706.13 634.668 1706.8 634.135 1706.13 632.535C1705.73 631.335 1705.33 628.668 1705.33 626.535C1705.33 623.601 1704.67 622.668 1702.67 622.668C1700.4 622.668 1700 623.601 1700 628.668Z" fill="black"/>
<path d="M1418.67 635.868C1418.67 636.668 1417.87 637.335 1416.8 637.335C1414 637.335 1412.27 640.135 1411.73 645.335C1411.33 649.335 1411.73 650.001 1414.27 650.001C1415.87 650.001 1417.6 650.535 1418.13 651.068C1419.73 652.668 1424 647.735 1424 644.401C1424 642.535 1422.8 639.601 1421.33 637.735C1419.87 635.868 1418.67 634.935 1418.67 635.868Z" fill="black"/>
<path d="M1698.4 660.933C1697.07 663.333 1696.4 667.2 1696.53 671.333C1696.8 677.467 1697.2 678 1700.13 678C1703.2 678 1703.33 677.467 1704 667.6C1704.53 658.933 1704.4 657.333 1702.67 657.333C1701.47 657.333 1699.6 658.933 1698.4 660.933Z" fill="black"/>
<path d="M1692.8 691.865C1691.6 693.732 1693.33 697.332 1695.33 697.332C1697.33 697.332 1699.07 693.732 1697.87 691.865C1697.47 691.199 1696.4 690.665 1695.33 690.665C1694.27 690.665 1693.2 691.199 1692.8 691.865Z" fill="black"/>
<path d="M1687.2 702.801C1685.6 705.334 1686.53 723.067 1688.4 724.267C1691.33 726.134 1692.67 724.534 1692.93 718.534C1693.2 715.334 1693.73 710.934 1694.13 708.801C1694.8 705.867 1694.4 704.534 1692.67 703.067C1689.6 700.934 1688.4 700.934 1687.2 702.801Z" fill="black"/>
<path d="M1682.27 736.932C1680.13 737.465 1680 738.399 1680.67 743.065C1682.4 753.332 1686.53 753.065 1687.07 742.665C1687.33 736.799 1686.53 735.865 1682.27 736.932Z" fill="black"/>
<path d="M1696.53 741.466C1695.2 743.733 1699.6 747.599 1701.47 745.733C1702.4 744.799 1702.67 743.199 1702.27 742.133C1701.33 739.733 1697.87 739.333 1696.53 741.466Z" fill="black"/>
</g>
<defs>
<clipPath id="clip0_824_6">
<rect width="1706.67" height="992" fill="white"/>
</clipPath>
</defs>
</svg>
